<svg xmlns="http://www.w3.org/2000/svg" width="512" height="512" viewBox="0 0 512 512" version="1.1">
	<path d="M 0 256.002 L 0 512.004 256.250 511.752 L 512.500 511.500 512.752 255.750 L 513.004 0 256.502 0 L 0 0 0 256.002 M 0.492 256.500 C 0.492 397.300, 0.608 454.751, 0.750 384.170 C 0.892 313.588, 0.892 198.388, 0.750 128.170 C 0.608 57.951, 0.492 115.700, 0.492 256.500 M 230 13.044 C 169.040 20.499, 105.802 56.135, 66.822 105 C 19.846 163.888, 2.556 238.887, 19.560 310 C 27.351 342.581, 44.542 377.142, 66.225 403.815 C 89.883 432.918, 128.111 460.960, 164.558 475.945 C 213 495.863, 262.778 499.602, 311.500 486.983 C 406.198 462.457, 476.137 389.826, 493.952 297.510 C 504.811 241.240, 491.439 175.177, 459.236 126 C 434.916 88.861, 398.656 56.954, 357 36.038 C 337.482 26.238, 314.730 18.706, 293 14.851 C 279.864 12.521, 242.940 11.462, 230 13.044 M 237 55.110 C 215.125 57.592, 187.237 65.830, 167.551 75.625 C 153.883 82.425, 134.232 95.496, 123.106 105.188 C 90.392 133.684, 65.146 179.642, 57.566 224.500 C 51.254 261.851, 54.472 294.697, 68.195 333 C 73.902 348.930, 76.469 353.829, 79.508 354.591 C 83.279 355.538, 86.526 354.336, 87.810 351.518 C 89.052 348.792, 89.292 349.594, 80.099 325.755 C 64.292 284.766, 63.820 240.976, 78.695 195.732 C 82.595 183.871, 95.876 158.054, 103.743 147.040 C 111.687 135.918, 127.333 119.317, 137.966 110.730 C 161.576 91.661, 191.111 77.791, 221.979 71.277 C 233.164 68.916, 236.741 68.629, 255.500 68.584 C 278.105 68.530, 286.211 69.530, 303.500 74.508 C 344.472 86.304, 382.683 113.355, 405.898 147 C 421.344 169.385, 433.481 199.391, 438.661 228 C 441.126 241.613, 441.100 272.900, 438.612 286.460 C 436.141 299.928, 432.080 314.064, 425.369 332.555 C 420.253 346.651, 419.870 348.272, 421.007 351.017 C 423.637 357.366, 430.838 355.851, 434.122 348.257 C 438.221 338.780, 447.881 308.268, 449.879 298.493 C 463.142 233.580, 442.943 163.115, 397.625 116.207 C 369.350 86.939, 331.152 65.528, 294 58.121 C 273.800 54.094, 254.803 53.091, 237 55.110 M 219.500 92.612 C 145.054 108.008, 96.991 164.956, 87.935 248.500 C 86.523 261.526, 87.241 284.773, 89.430 296.854 C 94.676 325.816, 107.605 356.145, 123.673 377.183 C 126.060 380.308, 128.855 384.808, 129.883 387.183 C 131.349 390.568, 133.021 392.250, 137.626 394.976 C 140.857 396.888, 148.900 402.068, 155.500 406.488 C 175.669 419.994, 189.757 426.512, 211.920 432.593 C 218.752 434.467, 224.939 436, 225.670 436 C 227.981 436, 231 432.112, 231 429.136 C 231 424.679, 227.020 421.461, 219.742 420.031 C 202.130 416.572, 182.342 407.842, 164 395.439 C 157.675 391.162, 150.250 386.799, 147.500 385.743 C 141.030 383.258, 140.427 382.701, 138.688 377.598 C 137.887 375.246, 134.179 368.861, 130.449 363.410 C 118.165 345.460, 108.668 322.676, 103.807 299.500 C 101.783 289.851, 101.500 285.675, 101.500 265.500 C 101.500 240.673, 102.020 236.682, 108.096 214.849 C 113.383 195.850, 121.490 178.815, 132.670 163.214 C 156.460 130.016, 191.022 109.623, 232.222 104.476 C 240.137 103.487, 243.391 97.300, 238.545 92.455 C 235.565 89.474, 234.639 89.482, 219.500 92.612 M 281.114 92.886 C 279.951 94.049, 279 96.075, 279 97.389 C 279 102.081, 281.852 103.891, 294 106.912 C 333.812 116.809, 371.348 146.602, 389.231 182.500 C 398.498 201.102, 405.656 231.454, 406.683 256.500 C 408.185 293.132, 398.063 331.376, 378.521 362.899 C 375.317 368.068, 371.824 374.593, 370.759 377.399 C 368.227 384.070, 367.735 384.577, 362.530 385.888 C 360.105 386.499, 354.607 389.401, 350.311 392.337 C 332.159 404.745, 312.641 414.018, 295.054 418.590 C 289.858 419.940, 284.796 421.780, 283.804 422.678 C 279.717 426.376, 282.905 435, 288.358 435 C 292.627 435, 323.104 424.034, 333.087 418.906 C 338.471 416.141, 347.741 410.721, 353.688 406.863 C 359.634 403.004, 367.309 398.270, 370.741 396.342 C 377.577 392.504, 381 388.909, 381 385.567 C 381 384.377, 383.989 378.925, 387.642 373.452 C 401.285 353.008, 411.562 328.179, 416.388 304 C 422.446 273.646, 421.975 247.500, 414.812 216.500 C 400.847 156.057, 359.822 112.184, 300.640 94.401 C 288.325 90.701, 283.661 90.339, 281.114 92.886 M 253.345 96.937 C 251.695 97.940, 242.185 106.652, 232.210 116.297 C 213.099 134.776, 201.272 144.617, 191.741 149.968 C 187.329 152.445, 183.237 153.659, 174.241 155.161 C 153.376 158.644, 143.746 163.160, 133.293 174.361 C 118.513 190.199, 115.588 209.537, 123.359 240.029 C 132.218 274.791, 154.530 320.462, 177.242 350.325 C 190.713 368.037, 216.210 394.906, 234 410.136 C 243.514 418.281, 254.322 426, 256.211 426 C 260.034 426, 276.174 412.871, 294.842 394.576 C 325.301 364.726, 345.259 337.561, 362.490 302.500 C 386.487 253.670, 396.318 216.151, 390.414 195.932 C 386.925 183.984, 376.993 170.412, 367.086 164.055 C 359.994 159.504, 352.962 157.334, 339.454 155.526 C 319.115 152.804, 310.034 146.781, 276.882 114.023 C 267.322 104.576, 258.790 96.457, 257.921 95.980 C 256.880 95.408, 255.323 95.734, 253.345 96.937 M 242.500 130.665 C 218.149 152.405, 203.711 163.094, 193.566 166.889 C 190.414 168.069, 183.035 169.738, 177.168 170.599 C 155.595 173.766, 143.549 182.032, 137.745 197.651 C 134.531 206.300, 134.732 221.892, 138.238 236 C 147.584 273.607, 169.980 316.924, 196.660 349 C 215.121 371.194, 250.464 404, 255.912 404 C 259.272 404, 271.484 393.747, 288.531 376.616 C 317.686 347.317, 332.958 326.020, 351.001 289.500 C 375.216 240.488, 381.185 210.964, 370.938 190.879 C 367.983 185.087, 361.879 178.796, 356.228 175.721 C 351.615 173.210, 349.097 172.672, 329.840 170.084 C 313.247 167.854, 305.721 162.845, 266.995 128.250 C 261.299 123.162, 256.383 119.013, 256.070 119.029 C 255.756 119.045, 249.650 124.281, 242.500 130.665 M 249.226 148.040 C 247.976 148.542, 246.575 149.975, 246.113 151.225 C 244.969 154.317, 245.874 179.956, 247.225 182.724 C 249.678 187.750, 260.164 187.970, 264.278 183.081 C 266.424 180.532, 266.536 179.614, 266.387 165.944 C 266.300 158, 266.177 151.174, 266.114 150.776 C 265.649 147.828, 254.323 145.993, 249.226 148.040 M 233.239 204.281 C 227.794 206.345, 223.306 210.661, 220.555 216.475 C 217.946 221.989, 217.933 222, 213.365 222 C 196.703 222, 177.851 233.433, 170.759 247.838 C 167.991 253.460, 167.555 255.393, 167.578 261.927 C 167.598 267.405, 168.236 271.100, 169.886 275.281 C 174.575 287.167, 192.660 311.633, 215.715 337.281 C 230.558 353.794, 250.856 372, 254.423 372 C 257.697 372, 265.584 365.521, 282.230 349.157 C 307.840 323.980, 331.266 295.216, 339.305 279.077 C 343.190 271.276, 343.500 270.058, 343.500 262.577 C 343.500 252.737, 340.631 245.727, 333.472 238.073 C 324.484 228.465, 313.312 223.204, 299.597 222.123 L 291.694 221.500 290.385 217.707 C 288.242 211.502, 285.017 207.897, 279.241 205.253 C 272.432 202.136, 266.848 202.554, 260.198 206.681 L 255.500 209.596 250.744 206.651 C 245.321 203.292, 238.341 202.347, 233.239 204.281 M 234.459 212.880 C 224.054 217.606, 220.312 229.862, 225.922 240.842 C 226.950 242.854, 230.404 246.975, 233.598 250 C 243.852 259.713, 248.430 264.410, 251.522 268.391 L 254.544 272.282 258.974 266.891 C 261.410 263.926, 267.184 258.125, 271.805 254 C 276.425 249.875, 281.365 244.523, 282.782 242.107 C 289.180 231.195, 283.619 214.999, 272.294 211.563 C 268.344 210.364, 262.972 212.095, 259.326 215.741 L 255.843 219.224 253.171 216.665 C 250.096 213.719, 244.104 210.990, 240.782 211.022 C 239.527 211.034, 236.681 211.870, 234.459 212.880 M 216.259 278.250 C 215.717 278.938, 214.994 283.636, 214.652 288.692 C 214.310 293.748, 213.318 299.823, 212.449 302.192 C 209.481 310.276, 209.464 310, 212.929 310 C 216.596 310, 220.562 306.556, 222.153 301.990 C 222.727 300.345, 223.567 299, 224.020 299 C 224.474 299, 226.792 301.193, 229.172 303.873 C 234.238 309.576, 235.850 310.505, 242.307 311.442 C 246.262 312.016, 247.454 312.698, 249.029 315.287 C 250.081 317.018, 251.232 320.362, 251.585 322.717 C 252.286 327.393, 253.274 327.866, 257.027 325.327 C 261.195 322.508, 274 310.876, 274 309.910 C 274 309.410, 270.840 309, 266.979 309 C 260.459 309, 259.876 308.821, 258.818 306.500 C 257.746 304.147, 257.203 303.994, 249.589 303.900 C 240.573 303.789, 236.847 303.042, 236.241 301.222 C 235.927 300.281, 241.444 300, 260.198 300 L 284.563 300 290.289 296.418 C 293.439 294.448, 295.761 292.423, 295.449 291.918 C 295.123 291.390, 280.686 291, 261.509 291 L 228.136 291 226.199 288.250 C 225.133 286.738, 223.293 283.587, 222.110 281.250 C 219.931 276.944, 218.050 275.979, 216.259 278.250 M 121.888 294.889 C 119.617 296.729, 119.587 296.963, 120.751 303.753 C 124.652 326.502, 138.218 352.406, 155.464 370.035 C 161.094 375.790, 162.834 377, 165.484 377 C 169.504 377, 172 374.353, 172 370.090 C 172 367.316, 170.637 365.483, 162.750 357.646 C 148.371 343.358, 138.906 325.558, 135.434 306.276 C 134.058 298.633, 133.302 296.596, 131.243 294.976 C 128.083 292.491, 124.887 292.461, 121.888 294.889 M 375.712 294.766 C 374.833 295.737, 373.376 300.124, 372.474 304.516 C 367.989 326.348, 357.053 347.208, 342.793 361.134 C 335.592 368.166, 334.648 370.625, 337.557 374.777 C 338.725 376.446, 340.113 377, 343.122 377 C 346.697 377, 347.719 376.382, 352.590 371.272 C 366.569 356.607, 378.470 335.302, 384.489 314.170 C 388.481 300.150, 388.754 296.992, 386.171 294.655 C 383.737 292.452, 377.749 292.515, 375.712 294.766" stroke="none" fill="black" fill-rule="evenodd"/>
</svg>